<svg width="1302" height="1168" viewBox="0 0 1302 1168" fill="none" xmlns="http://www.w3.org/2000/svg">
<g filter="url(#filter0_f_28_936)">
<ellipse cx="333.57" cy="400.48" rx="333.57" ry="400.48" transform="matrix(-4.85946e-08 -1 0.999999 0.00125613 250.882 917.141)" fill="#66C9FF" fill-opacity="0.05"/>
</g>
<path d="M704.452 606.487L674.361 543.852C877.075 601.933 957.843 720.371 962.595 763.078C978.431 825.714 937.255 950.987 763.048 936.751C561.352 920.267 525.493 849.913 386.128 795.818C274.635 752.543 179.19 758.332 137.486 765.924C188.165 744.57 297.757 697.31 406.715 741.725C515.674 786.14 688.086 829.983 748.795 841.371C788.915 847.54 862.821 845.643 875.491 765.924C888.161 686.205 755.13 623.095 704.452 606.487Z" fill="#141829"/>
<path d="M650.63 341.681V273.35C679.664 274.3 742.484 280.183 767.824 284.739C799.498 290.432 888.185 321.75 899.271 402.893C908.14 467.806 847.009 517.251 815.335 533.858C854.4 549.043 940.131 610.446 957.868 677.637C933.796 622.972 793.691 551.89 728.232 529.588C753.57 521.521 805.199 489.444 809.001 425.669C812.801 361.895 705.004 343.104 650.63 341.681Z" fill="#141829"/>
<path d="M483.539 155H424.436C421.583 155 418.919 156.282 417.337 158.415C416.403 159.675 415.904 161.155 415.904 162.67V267.141C415.904 269.067 415.053 270.914 413.537 272.276C412.007 273.653 409.926 274.419 407.761 274.404L311.745 273.745C308.858 273.725 306.084 274.747 304.043 276.581C302.023 278.398 300.888 280.861 300.888 283.43V326.743C300.888 330.591 303.004 334.19 306.54 336.358C308.549 337.588 310.901 338.286 313.329 338.371L405.944 341.623C409.242 341.738 412.314 343.157 414.339 345.498C415.867 347.264 416.697 349.437 416.697 351.673V666.661C416.697 668.695 417.383 670.682 418.666 672.359C420.208 674.376 422.517 675.818 425.157 676.415L484.462 689.819C487.186 690.435 490.067 689.668 491.979 687.818C493.301 686.538 494.036 684.856 494.036 683.111V351.009C494.036 349.192 494.634 347.416 495.755 345.904C497.654 343.344 500.851 341.805 504.275 341.805H603.258C605.952 341.805 608.535 340.844 610.44 339.132C612.344 337.419 613.414 335.098 613.414 332.676V278.011C613.414 275.945 612.501 273.963 610.876 272.502C609.204 270.999 606.922 270.175 604.558 270.222L502.21 272.222C500.029 272.264 497.922 271.504 496.378 270.117C494.878 268.768 494.036 266.939 494.036 265.031V164.435C494.036 161.827 492.835 159.335 490.718 157.552C488.772 155.912 486.206 155 483.539 155Z" fill="#272A3F"/>
<defs>
<filter id="filter0_f_28_936" x="0.881836" y="0.50238" width="1300.96" height="1167.14" filterUnits="userSpaceOnUse" color-interpolation-filters="sRGB">
<feFlood flood-opacity="0" result="BackgroundImageFix"/>
<feBlend mode="normal" in="SourceGraphic" in2="BackgroundImageFix" result="shape"/>
<feGaussianBlur stdDeviation="125" result="effect1_foregroundBlur_28_936"/>
</filter>
</defs>
</svg>
