<svg width="42" height="45" viewBox="0 0 42 45" fill="none" xmlns="http://www.w3.org/2000/svg">
  <path d="M28.7512 25.4712L27.2253 21.9376C37.505 25.2143 41.6009 31.8961 41.8418 34.3054C42.6449 37.8391 40.5568 44.9065 31.7227 44.1033C21.4945 43.1734 19.6761 39.2043 12.6088 36.1525C6.95489 33.7111 2.11484 34.0377 0 34.466C2.56994 33.2613 8.12743 30.5951 13.6528 33.1008C19.1782 35.6065 27.9213 38.08 30.9999 38.7225C33.0344 39.0705 36.7822 38.9634 37.4247 34.466C38.0672 29.9686 31.3211 26.4082 28.7512 25.4712Z" fill="#E5F6FF" />
  <path d="M26.0225 10.532V6.67712C27.4948 6.73066 30.6805 7.06261 31.9654 7.31961C33.5717 7.64085 38.069 9.40768 38.6312 13.9854C39.081 17.6475 35.981 20.437 34.3748 21.374C36.3558 22.2306 40.7032 25.6947 41.6027 29.4853C40.382 26.4014 33.2772 22.3912 29.9577 21.133C31.2426 20.6779 33.8608 18.8683 34.0535 15.2704C34.2463 11.6724 28.7798 10.6123 26.0225 10.532Z" fill="#E5F6FF" />
  <path d="M17.5485 0H14.5514C14.4067 0 14.2716 0.0723033 14.1913 0.192678C14.144 0.263755 14.1187 0.347268 14.1187 0.432692V6.32651C14.1187 6.43519 14.0755 6.53942 13.9987 6.61627C13.921 6.69389 13.8155 6.73712 13.7058 6.73628L8.83669 6.69912C8.69034 6.698 8.54965 6.75564 8.44617 6.85913C8.3437 6.9616 8.28613 7.10058 8.28613 7.24549V9.68903C8.28613 9.90612 8.39345 10.1092 8.57281 10.2315C8.67461 10.3009 8.7939 10.3402 8.91702 10.345L13.6136 10.5285C13.7808 10.535 13.9366 10.615 14.0394 10.7471C14.1168 10.8467 14.1589 10.9693 14.1589 11.0955V28.8658C14.1589 28.9806 14.1937 29.0927 14.2587 29.1873C14.337 29.3011 14.454 29.3824 14.5879 29.4161L17.5953 30.1723C17.7335 30.2071 17.8796 30.1638 17.9765 30.0594C18.0435 29.9872 18.0808 29.8923 18.0808 29.7938V11.058C18.0808 10.9555 18.1111 10.8553 18.168 10.77C18.2643 10.6256 18.4264 10.5388 18.6 10.5388H23.6196C23.7561 10.5388 23.8871 10.4845 23.9837 10.388C24.0803 10.2914 24.1346 10.1604 24.1346 10.0238V6.93977C24.1346 6.8232 24.0883 6.7114 24.0058 6.62896C23.921 6.54419 23.8053 6.49772 23.6855 6.50033L18.4953 6.61316C18.3847 6.61556 18.2779 6.57267 18.1996 6.49441C18.1235 6.41832 18.0808 6.31512 18.0808 6.20751V0.532287C18.0808 0.385158 18.0199 0.244591 17.9126 0.143964C17.8139 0.0514726 17.6837 0 17.5485 0Z" fill="#99DBFF" />
</svg>