<svg width="80" height="85" viewBox="0 0 80 85" fill="none" xmlns="http://www.w3.org/2000/svg">
<path d="M54.7642 48.5163L51.8577 41.7856C71.4382 48.0269 79.2397 60.7542 79.6987 65.3434C81.2284 72.0742 77.2511 85.5359 60.4241 84.0061C40.9419 82.2348 37.4783 74.6746 24.0167 68.8616C13.2474 64.2113 4.02828 64.8334 0 65.6492C4.89512 63.3546 15.4808 58.2761 26.0053 63.0488C36.5298 67.8216 53.1834 72.533 59.0474 73.7567C62.9227 74.4196 70.0614 74.2157 71.2852 65.6492C72.509 57.0827 59.6593 50.301 54.7642 48.5163Z" fill="#161A2B"/>
<path d="M49.5654 20.0605V12.7178C52.3699 12.8198 58.4378 13.452 60.8854 13.9416C63.9448 14.5534 72.5113 17.9188 73.5821 26.6383C74.4388 33.6138 68.534 38.9271 65.4746 40.7117C69.2479 42.3434 77.5288 48.9417 79.2421 56.162C76.9169 50.2878 63.3839 42.6494 57.0611 40.2528C59.5086 39.386 64.4955 35.939 64.8627 29.0858C65.2298 22.2327 54.8175 20.2134 49.5654 20.0605Z" fill="#161A2B"/>
<path d="M33.4258 0H27.717C27.4414 0 27.1841 0.13772 27.0312 0.367005C26.941 0.50239 26.8928 0.661462 26.8928 0.824175V12.0505C26.8928 12.2575 26.8106 12.456 26.6642 12.6024C26.5164 12.7503 26.3154 12.8326 26.1063 12.831L16.8319 12.7602C16.5531 12.7581 16.2851 12.8679 16.088 13.065C15.8929 13.2602 15.7832 13.5249 15.7832 13.8009V18.4553C15.7832 18.8688 15.9876 19.2556 16.3292 19.4885C16.5232 19.6207 16.7504 19.6957 16.9849 19.7048L25.9308 20.0543C26.2493 20.0667 26.5461 20.2191 26.7417 20.4707C26.8893 20.6605 26.9694 20.894 26.9694 21.1343V54.9825C26.9694 55.2011 27.0357 55.4146 27.1596 55.5948C27.3086 55.8116 27.5316 55.9665 27.7866 56.0307L33.515 57.4711C33.7781 57.5373 34.0564 57.4548 34.241 57.256C34.3687 57.1185 34.4397 56.9378 34.4397 56.7502V21.0629C34.4397 20.8677 34.4975 20.6768 34.6058 20.5143C34.7892 20.2392 35.098 20.0739 35.4287 20.0739H44.9897C45.2499 20.0739 45.4994 19.9706 45.6834 19.7866C45.8673 19.6026 45.9707 19.3531 45.9707 19.0929V13.2186C45.9707 12.9966 45.8825 12.7836 45.7255 12.6266C45.564 12.4651 45.3436 12.3766 45.1153 12.3816L35.2293 12.5965C35.0186 12.6011 34.8151 12.5194 34.666 12.3703C34.5211 12.2254 34.4397 12.0288 34.4397 11.8238V1.01388C34.4397 0.733635 34.3237 0.465888 34.1192 0.274217C33.9313 0.0980431 33.6834 0 33.4258 0Z" fill="#66C9FF"/>
</svg>
